# Created by 3DAce v2.72


g
v -6.255428 0.227862 2.134094
v -5.564844 0.227862 1.849467
v -5.278799 0.227862 1.162317
v -5.564844 0.227862 0.475167
v -6.255428 0.227862 0.190541
v -6.946013 0.227862 0.475168
v -7.232064 0.227862 1.162317
v -6.946013 0.227862 1.849467
v -6.255428 0.000000 2.134094
v -5.564844 0.000000 1.849467
v -5.278799 0.000000 1.162317
v -5.564844 0.000000 0.475167
v -6.255428 0.000000 0.190541
v -6.946013 0.000000 0.475168
v -7.232064 0.000000 1.162317
v -6.946013 0.000000 1.849467
v -6.255428 0.227862 1.925161
v -5.713321 0.227862 1.701730
v -5.488773 0.227862 1.162317
v -5.713321 0.227862 0.622904
v -6.255428 0.227862 0.399473
v -6.797534 0.227862 0.622904
v -7.022084 0.227862 1.162317
v -6.797534 0.227862 1.701730
v -6.255428 0.000000 1.925161
v -5.713321 0.000000 1.701730
v -5.488773 0.000000 1.162317
v -5.713321 0.000000 0.622904
v -6.255428 0.000000 0.399473
v -6.797534 0.000000 0.622904
v -7.022084 0.000000 1.162317
v -6.797534 0.000000 1.701730
v -6.255428 0.171044 1.925161
v -5.713321 0.171044 1.701730
v -5.488773 0.171044 1.162317
v -5.713321 0.171044 0.622904
v -6.255428 0.171044 0.399473
v -6.797534 0.171044 0.622904
v -7.022084 0.171044 1.162317
v -6.797534 0.171044 1.701730
v -6.255428 0.299265 1.162317
v -6.255428 0.299265 1.474501
v -6.135362 0.299265 1.450736
v -6.033576 0.299265 1.383065
v -5.965566 0.299265 1.281785
v -5.941683 0.299265 1.162317
v -5.965566 0.299265 1.042849
v -6.033576 0.299265 0.941569
v -6.135362 0.299265 0.873898
v -6.255428 0.299265 0.850134
v -6.375491 0.299265 0.873898
v -6.477276 0.299265 0.941569
v -6.545289 0.299265 1.042849
v -6.569171 0.299265 1.162317
v -6.545289 0.299265 1.281785
v -6.477276 0.299265 1.383065
v -6.375491 0.299265 1.450736
v -6.255428 0.000000 1.474501
v -6.135362 0.000000 1.450736
v -6.033576 0.000000 1.383065
v -5.965566 0.000000 1.281785
v -5.941683 0.000000 1.162317
v -5.965566 0.000000 1.042849
v -6.033576 0.000000 0.941569
v -6.135362 0.000000 0.873898
v -6.255428 0.000000 0.850134
v -6.375491 0.000000 0.873898
v -6.477276 0.000000 0.941569
v -6.545289 0.000000 1.042849
v -6.569171 0.000000 1.162317
v -6.545289 0.000000 1.281785
v -6.477276 0.000000 1.383065
v -6.375491 0.000000 1.450736
v -6.255428 0.000265 1.162317
# 74 vertices

vt 0.000000 0.000000
vt 0.125000 0.000000
vt 0.125000 1.000000
vt 0.000000 1.000000
vt 0.125000 0.000000
vt 0.000000 0.000000
vt 0.000000 1.000000
vt 0.125000 1.000000
vt 0.125000 0.000000
vt 0.250000 0.000000
vt 0.250000 1.000000
vt 0.125000 1.000000
vt 0.250000 0.000000
vt 0.125000 0.000000
vt 0.125000 1.000000
vt 0.250000 1.000000
vt 0.250000 0.000000
vt 0.375000 0.000000
vt 0.375000 1.000000
vt 0.250000 1.000000
vt 0.375000 0.000000
vt 0.250000 0.000000
vt 0.250000 1.000000
vt 0.375000 1.000000
vt 0.500000 0.000000
vt 0.375000 0.000000
vt 0.375000 1.000000
vt 0.500000 1.000000
vt 0.500000 0.000000
vt 0.625000 0.000000
vt 0.625000 1.000000
vt 0.500000 1.000000
vt 0.625000 0.000000
vt 0.500000 0.000000
vt 0.500000 1.000000
vt 0.625000 1.000000
vt 0.625000 0.000000
vt 0.750000 0.000000
vt 0.750000 1.000000
vt 0.625000 1.000000
vt 0.750000 0.000000
vt 0.625000 0.000000
vt 0.625000 1.000000
vt 0.750000 1.000000
vt 0.750000 0.000000
vt 0.875000 0.000000
vt 0.875000 1.000000
vt 0.750000 1.000000
vt 0.875000 0.000000
vt 0.750000 0.000000
vt 0.750000 1.000000
vt 0.875000 1.000000
vt 0.875000 0.000000
vt 1.000000 0.000000
vt 1.000000 1.000000
vt 0.875000 1.000000
vt 1.000000 0.000000
vt 0.875000 0.000000
vt 0.875000 1.000000
vt 1.000000 1.000000
vt 0.000000 1.000000
vt 0.000000 1.000000
vt 0.000000 1.000000
vt 2.000000 1.000000
vt 0.000000 1.000000
vt 0.000000 1.000000
vt 0.000000 1.000000
vt 2.000000 1.000000
vt 0.000000 1.000000
vt 0.000000 1.000000
vt 0.000000 1.000000
vt 2.000000 1.000000
vt 0.000000 1.000000
vt 0.000000 1.000000
vt 0.000000 1.000000
vt 2.000000 1.000000
vt 0.000000 1.000000
vt 0.000000 1.000000
vt 0.000000 1.000000
vt 2.000000 1.000000
vt 0.000000 1.000000
vt 0.000000 1.000000
vt 0.000000 1.000000
vt 2.000000 1.000000
vt 0.000000 1.000000
vt 0.000000 1.000000
vt 0.000000 1.000000
vt 2.000000 1.000000
vt 0.000000 1.000000
vt 0.000000 1.000000
vt 0.000000 1.000000
vt 2.000000 1.000000
vt 0.000000 1.000000
vt 0.000000 1.000000
vt 0.000000 1.000000
vt 2.000000 1.000000
vt 0.000000 1.000000
vt 0.000000 1.000000
vt 0.000000 1.000000
vt 2.000000 1.000000
vt 0.000000 1.000000
vt 0.000000 1.000000
vt 0.000000 1.000000
vt 2.000000 1.000000
vt 0.000000 1.000000
vt 0.000000 1.000000
vt 0.000000 1.000000
vt 2.000000 1.000000
vt 0.000000 1.000000
vt 0.000000 1.000000
vt 0.000000 1.000000
vt 2.000000 1.000000
vt 0.000000 1.000000
vt 0.000000 1.000000
vt 0.000000 1.000000
vt 2.000000 1.000000
vt 0.000000 1.000000
vt 0.000000 1.000000
vt 0.000000 1.000000
vt 2.000000 1.000000
vt 0.000000 1.000000
vt 0.000000 1.000000
vt 0.000000 1.000000
vt 2.000000 1.000000
vt 0.000000 1.000000
vt 0.000000 1.000000
vt 0.000000 1.000000
vt 1.000000 1.000000
vt 0.000000 1.000000
vt 0.000000 1.000000
vt 0.000000 1.000000
vt 1.000000 1.000000
vt 0.000000 1.000000
vt 0.000000 1.000000
vt 0.000000 1.000000
vt 1.000000 1.000000
vt 0.000000 0.000000
vt 0.062500 0.000000
vt 0.062500 1.000000
vt 0.000000 1.000000
vt 0.062500 0.000000
vt 0.125000 0.000000
vt 0.125000 1.000000
vt 0.062500 1.000000
vt 0.125000 0.000000
vt 0.187500 0.000000
vt 0.187500 1.000000
vt 0.125000 1.000000
vt 0.187500 0.000000
vt 0.250000 0.000000
vt 0.250000 1.000000
vt 0.187500 1.000000
vt 0.250000 0.000000
vt 0.312500 0.000000
vt 0.312500 1.000000
vt 0.250000 1.000000
vt 0.312500 0.000000
vt 0.375000 0.000000
vt 0.375000 1.000000
vt 0.312500 1.000000
vt 0.375000 0.000000
vt 0.437500 0.000000
vt 0.437500 1.000000
vt 0.375000 1.000000
vt 0.437500 0.000000
vt 0.500000 0.000000
vt 0.500000 1.000000
vt 0.437500 1.000000
vt 0.500000 0.000000
vt 0.562500 0.000000
vt 0.562500 1.000000
vt 0.500000 1.000000
vt 0.562500 0.000000
vt 0.625000 0.000000
vt 0.625000 1.000000
vt 0.562500 1.000000
vt 0.625000 0.000000
vt 0.687500 0.000000
vt 0.687500 1.000000
vt 0.625000 1.000000
vt 0.687500 0.000000
vt 0.750000 0.000000
vt 0.750000 1.000000
vt 0.687500 1.000000
vt 0.750000 0.000000
vt 0.812500 0.000000
vt 0.812500 1.000000
vt 0.750000 1.000000
vt 0.812500 0.000000
vt 0.875000 0.000000
vt 0.875000 1.000000
vt 0.812500 1.000000
vt 0.875000 0.000000
vt 0.937500 0.000000
vt 0.937500 1.000000
vt 0.875000 1.000000
vt 0.937500 0.000000
vt 1.000000 0.000000
vt 1.000000 1.000000
vt 0.937500 1.000000
vt 0.000000 1.000000
vt 0.062500 1.000000
vt 0.031250 1.000000
vt 0.000000 1.000000
vt 0.062500 1.000000
vt 0.125000 1.000000
vt 0.093750 1.000000
vt 0.062500 1.000000
vt 0.125000 1.000000
vt 0.187500 1.000000
vt 0.156250 1.000000
vt 0.125000 1.000000
vt 0.187500 1.000000
vt 0.250000 1.000000
vt 0.218750 1.000000
vt 0.187500 1.000000
vt 0.250000 1.000000
vt 0.312500 1.000000
vt 0.281250 1.000000
vt 0.250000 1.000000
vt 0.312500 1.000000
vt 0.375000 1.000000
vt 0.343750 1.000000
vt 0.312500 1.000000
vt 0.375000 1.000000
vt 0.437500 1.000000
vt 0.406250 1.000000
vt 0.375000 1.000000
vt 0.437500 1.000000
vt 0.500000 1.000000
vt 0.468750 1.000000
vt 0.437500 1.000000
vt 0.500000 1.000000
vt 0.562500 1.000000
vt 0.531250 1.000000
vt 0.500000 1.000000
vt 0.562500 1.000000
vt 0.625000 1.000000
vt 0.593750 1.000000
vt 0.562500 1.000000
vt 0.625000 1.000000
vt 0.687500 1.000000
vt 0.656250 1.000000
vt 0.625000 1.000000
vt 0.687500 1.000000
vt 0.750000 1.000000
vt 0.718750 1.000000
vt 0.687500 1.000000
vt 0.750000 1.000000
vt 0.812500 1.000000
vt 0.781250 1.000000
vt 0.750000 1.000000
vt 0.812500 1.000000
vt 0.875000 1.000000
vt 0.843750 1.000000
vt 0.812500 1.000000
vt 0.875000 1.000000
vt 0.937500 1.000000
vt 0.906250 1.000000
vt 0.875000 1.000000
vt 0.937500 1.000000
vt 1.000000 1.000000
vt 0.968750 1.000000
vt 0.937500 1.000000
vt 0.062500 0.000000
vt 0.000000 0.000000
vt 0.031250 0.000000
vt 0.062500 0.000000
vt 0.125000 0.000000
vt 0.062500 0.000000
vt 0.093750 0.000000
vt 0.125000 0.000000
vt 0.187500 0.000000
vt 0.125000 0.000000
vt 0.156250 0.000000
vt 0.187500 0.000000
vt 0.250000 0.000000
vt 0.187500 0.000000
vt 0.218750 0.000000
vt 0.250000 0.000000
vt 0.312500 0.000000
vt 0.250000 0.000000
vt 0.281250 0.000000
vt 0.312500 0.000000
vt 0.375000 0.000000
vt 0.312500 0.000000
vt 0.343750 0.000000
vt 0.375000 0.000000
vt 0.437500 0.000000
vt 0.375000 0.000000
vt 0.406250 0.000000
vt 0.437500 0.000000
vt 0.500000 0.000000
vt 0.437500 0.000000
vt 0.468750 0.000000
vt 0.500000 0.000000
vt 0.562500 0.000000
vt 0.500000 0.000000
vt 0.531250 0.000000
vt 0.562500 0.000000
vt 0.625000 0.000000
vt 0.562500 0.000000
vt 0.593750 0.000000
vt 0.625000 0.000000
vt 0.687500 0.000000
vt 0.625000 0.000000
vt 0.656250 0.000000
vt 0.687500 0.000000
vt 0.750000 0.000000
vt 0.687500 0.000000
vt 0.718750 0.000000
vt 0.750000 0.000000
vt 0.812500 0.000000
vt 0.750000 0.000000
vt 0.781250 0.000000
vt 0.812500 0.000000
vt 0.875000 0.000000
vt 0.812500 0.000000
vt 0.843750 0.000000
vt 0.875000 0.000000
vt 0.937500 0.000000
vt 0.875000 0.000000
vt 0.906250 0.000000
vt 0.937500 0.000000
vt 1.000000 0.000000
vt 0.937500 0.000000
vt 0.968750 0.000000
vt 1.000000 0.000000
vt 0.500000 1.000000
vt 0.375000 1.000000
vt 0.375000 0.000000
vt 0.500000 0.000000
# 332 texture vertices

vn 0.000000 0.000000 1.000000
vn 0.705861 0.000000 0.708350
vn 0.705861 0.000000 0.708350
vn 0.000000 0.000000 1.000000
vn -0.705860 0.000000 -0.708352
vn 0.000000 0.000000 -1.000000
vn 0.000000 0.000000 -1.000000
vn -0.705860 0.000000 -0.708352
vn 0.705861 0.000000 0.708350
vn 1.000000 0.000000 -0.000000
vn 1.000000 0.000000 -0.000000
vn 0.705861 0.000000 0.708350
vn -1.000000 0.000000 0.000000
vn -0.705860 0.000000 -0.708352
vn -0.705860 0.000000 -0.708352
vn -1.000000 0.000000 0.000000
vn 1.000000 0.000000 -0.000000
vn 0.705861 0.000000 -0.708351
vn 0.705861 0.000000 -0.708351
vn 1.000000 0.000000 -0.000000
vn -0.705860 0.000000 0.708352
vn -1.000000 0.000000 0.000000
vn -1.000000 0.000000 0.000000
vn -0.705860 0.000000 0.708352
vn 0.000000 0.000000 1.000000
vn -0.705860 0.000000 0.708352
vn -0.705860 0.000000 0.708352
vn 0.000000 0.000000 1.000000
vn -0.000000 0.000000 -1.000000
vn -0.705858 0.000000 -0.708353
vn -0.705858 0.000000 -0.708353
vn -0.000000 0.000000 -1.000000
vn 0.705859 0.000000 0.708352
vn 0.000000 0.000000 1.000000
vn 0.000000 0.000000 1.000000
vn 0.705859 0.000000 0.708352
vn -0.705858 0.000000 -0.708353
vn -1.000000 0.000000 -0.000000
vn -1.000000 0.000000 -0.000000
vn -0.705858 0.000000 -0.708353
vn 1.000000 0.000000 0.000000
vn 0.705859 0.000000 0.708352
vn 0.705859 0.000000 0.708352
vn 1.000000 0.000000 0.000000
vn -1.000000 0.000000 -0.000000
vn -0.705859 0.000000 0.708353
vn -0.705859 0.000000 0.708353
vn -1.000000 0.000000 -0.000000
vn 0.705859 0.000000 -0.708352
vn 1.000000 0.000000 0.000000
vn 1.000000 0.000000 0.000000
vn 0.705859 0.000000 -0.708352
vn -0.705859 0.000000 0.708353
vn 0.000000 0.000000 1.000000
vn 0.000000 0.000000 1.000000
vn -0.705859 0.000000 0.708353
vn 0.000000 0.000000 -1.000000
vn 0.705859 0.000000 -0.708352
vn 0.705859 0.000000 -0.708352
vn 0.000000 0.000000 -1.000000
vn 0.000000 1.000000 0.000000
vn 0.000000 1.000000 0.000000
vn 0.000000 1.000000 0.000000
vn 0.000000 1.000000 0.000000
vn 0.000000 -1.000000 0.000000
vn 0.000000 -1.000000 0.000000
vn 0.000000 -1.000000 0.000000
vn 0.000000 -1.000000 0.000000
vn 0.000000 1.000000 0.000000
vn 0.000000 1.000000 0.000000
vn 0.000000 1.000000 0.000000
vn 0.000000 1.000000 0.000000
vn 0.000000 -1.000000 0.000000
vn 0.000000 -1.000000 0.000000
vn 0.000000 -1.000000 0.000000
vn 0.000000 -1.000000 0.000000
vn 0.000000 1.000000 0.000000
vn 0.000000 1.000000 0.000000
vn 0.000000 1.000000 0.000000
vn 0.000000 1.000000 0.000000
vn 0.000000 -1.000000 0.000000
vn 0.000000 -1.000000 0.000000
vn 0.000000 -1.000000 0.000000
vn 0.000000 -1.000000 0.000000
vn 0.000000 1.000000 0.000000
vn 0.000000 1.000000 0.000000
vn 0.000000 1.000000 0.000000
vn 0.000000 1.000000 0.000000
vn 0.000000 -1.000000 0.000000
vn 0.000000 -1.000000 0.000000
vn 0.000000 -1.000000 0.000000
vn 0.000000 -1.000000 0.000000
vn 0.000000 1.000000 -0.000000
vn 0.000000 1.000000 -0.000000
vn 0.000000 1.000000 0.000000
vn 0.000000 1.000000 0.000000
vn 0.000000 -1.000000 0.000000
vn 0.000000 -1.000000 0.000000
vn 0.000000 -1.000000 0.000000
vn 0.000000 -1.000000 0.000000
vn 0.000000 1.000000 0.000000
vn 0.000000 1.000000 0.000000
vn 0.000000 1.000000 -0.000000
vn 0.000000 1.000000 -0.000000
vn 0.000000 -1.000000 0.000000
vn 0.000000 -1.000000 0.000000
vn 0.000000 -1.000000 0.000000
vn 0.000000 -1.000000 0.000000
vn 0.000000 1.000000 0.000000
vn 0.000000 1.000000 0.000000
vn 0.000000 1.000000 0.000000
vn 0.000000 1.000000 0.000000
vn 0.000000 -1.000000 0.000000
vn 0.000000 -1.000000 0.000000
vn 0.000000 -1.000000 0.000000
vn 0.000000 -1.000000 0.000000
vn 0.000000 1.000000 0.000000
vn 0.000000 1.000000 0.000000
vn 0.000000 1.000000 0.000000
vn 0.000000 1.000000 0.000000
vn 0.000000 -1.000000 0.000000
vn 0.000000 -1.000000 0.000000
vn 0.000000 -1.000000 0.000000
vn 0.000000 -1.000000 0.000000
vn 0.000000 1.000000 0.000000
vn 0.000000 1.000000 0.000000
vn 0.000000 1.000000 0.000000
vn 0.000000 1.000000 0.000000
vn 0.000000 1.000000 0.000000
vn 0.000000 1.000000 0.000000
vn 0.000000 1.000000 0.000000
vn 0.000000 1.000000 0.000000
vn 0.000000 1.000000 0.000000
vn 0.000000 1.000000 0.000000
vn 0.000000 1.000000 0.000000
vn 0.000000 1.000000 0.000000
vn -0.000003 0.000000 1.000000
vn 0.381179 0.000000 0.924501
vn 0.381179 0.000000 0.924501
vn -0.000003 0.000000 1.000000
vn 0.381179 0.000000 0.924501
vn 0.705475 0.000000 0.708735
vn 0.705475 0.000000 0.708735
vn 0.381179 0.000000 0.924501
vn 0.705475 0.000000 0.708735
vn 0.923255 0.000000 0.384188
vn 0.923255 0.000000 0.384188
vn 0.705475 0.000000 0.708735
vn 0.923255 0.000000 0.384188
vn 1.000000 0.000000 0.000000
vn 1.000000 0.000000 0.000000
vn 0.923255 0.000000 0.384188
vn 1.000000 0.000000 0.000000
vn 0.923255 0.000000 -0.384188
vn 0.923255 0.000000 -0.384188
vn 1.000000 0.000000 0.000000
vn 0.923255 0.000000 -0.384188
vn 0.705475 0.000000 -0.708735
vn 0.705475 0.000000 -0.708735
vn 0.923255 0.000000 -0.384188
vn 0.705475 0.000000 -0.708735
vn 0.381175 0.000000 -0.924503
vn 0.381175 0.000000 -0.924503
vn 0.705475 0.000000 -0.708735
vn 0.381175 0.000000 -0.924503
vn -0.000003 0.000000 -1.000000
vn -0.000003 0.000000 -1.000000
vn 0.381175 0.000000 -0.924503
vn -0.000003 0.000000 -1.000000
vn -0.381179 0.000000 -0.924501
vn -0.381179 0.000000 -0.924501
vn -0.000003 0.000000 -1.000000
vn -0.381179 0.000000 -0.924501
vn -0.705470 0.000000 -0.708740
vn -0.705470 0.000000 -0.708740
vn -0.381179 0.000000 -0.924501
vn -0.705470 0.000000 -0.708740
vn -0.923252 0.000000 -0.384195
vn -0.923252 0.000000 -0.384195
vn -0.705470 0.000000 -0.708740
vn -0.923252 0.000000 -0.384195
vn -1.000000 0.000000 0.000000
vn -1.000000 0.000000 0.000000
vn -0.923252 0.000000 -0.384195
vn -1.000000 0.000000 0.000000
vn -0.923252 0.000000 0.384195
vn -0.923252 0.000000 0.384195
vn -1.000000 0.000000 0.000000
vn -0.923252 0.000000 0.384195
vn -0.705470 0.000000 0.708740
vn -0.705470 0.000000 0.708740
vn -0.923252 0.000000 0.384195
vn -0.705470 0.000000 0.708740
vn -0.381183 0.000000 0.924500
vn -0.381183 0.000000 0.924500
vn -0.705470 0.000000 0.708740
vn -0.381183 0.000000 0.924500
vn -0.000003 0.000000 1.000000
vn -0.000003 0.000000 1.000000
vn -0.381183 0.000000 0.924500
vn 0.000000 1.000000 -0.000000
vn 0.000000 1.000000 -0.000000
vn 0.000000 1.000000 0.000000
vn 0.000000 1.000000 -0.000000
vn 0.000000 1.000000 -0.000000
vn 0.000000 1.000000 -0.000000
vn 0.000000 1.000000 0.000000
vn 0.000000 1.000000 -0.000000
vn 0.000000 1.000000 -0.000000
vn 0.000000 1.000000 -0.000000
vn 0.000000 1.000000 0.000000
vn 0.000000 1.000000 -0.000000
vn 0.000000 1.000000 -0.000000
vn 0.000000 1.000000 0.000000
vn 0.000000 1.000000 0.000000
vn 0.000000 1.000000 -0.000000
vn 0.000000 1.000000 0.000000
vn -0.000000 1.000000 0.000000
vn 0.000000 1.000000 0.000000
vn 0.000000 1.000000 0.000000
vn -0.000000 1.000000 0.000000
vn -0.000000 1.000000 0.000000
vn 0.000000 1.000000 0.000000
vn -0.000000 1.000000 0.000000
vn -0.000000 1.000000 0.000000
vn -0.000000 1.000000 0.000000
vn 0.000000 1.000000 0.000000
vn -0.000000 1.000000 0.000000
vn -0.000000 1.000000 0.000000
vn 0.000000 1.000000 0.000000
vn 0.000000 1.000000 0.000000
vn -0.000000 1.000000 0.000000
vn 0.000000 1.000000 0.000000
vn 0.000000 1.000000 0.000000
vn 0.000000 1.000000 0.000000
vn 0.000000 1.000000 0.000000
vn 0.000000 1.000000 0.000000
vn 0.000000 1.000000 0.000000
vn 0.000000 1.000000 0.000000
vn 0.000000 1.000000 0.000000
vn 0.000000 1.000000 0.000000
vn 0.000000 1.000000 0.000000
vn 0.000000 1.000000 0.000000
vn 0.000000 1.000000 0.000000
vn 0.000000 1.000000 0.000000
vn 0.000000 1.000000 0.000000
vn 0.000000 1.000000 0.000000
vn 0.000000 1.000000 0.000000
vn 0.000000 1.000000 0.000000
vn 0.000000 1.000000 0.000000
vn 0.000000 1.000000 0.000000
vn 0.000000 1.000000 0.000000
vn 0.000000 1.000000 0.000000
vn 0.000000 1.000000 0.000000
vn 0.000000 1.000000 0.000000
vn 0.000000 1.000000 0.000000
vn 0.000000 1.000000 0.000000
vn 0.000000 1.000000 0.000000
vn 0.000000 1.000000 0.000000
vn 0.000000 1.000000 0.000000
vn 0.000000 1.000000 0.000000
vn 0.000000 1.000000 -0.000000
vn 0.000000 1.000000 0.000000
vn 0.000000 1.000000 0.000000
vn -0.000323 -1.000000 -0.000784
vn 0.000000 -1.000000 -0.000849
vn 0.000000 -1.000000 0.000000
vn -0.000323 -1.000000 -0.000784
vn -0.000597 -1.000000 -0.000600
vn -0.000323 -1.000000 -0.000784
vn 0.000000 -1.000000 0.000000
vn -0.000597 -1.000000 -0.000600
vn -0.000780 -1.000000 -0.000325
vn -0.000597 -1.000000 -0.000600
vn 0.000000 -1.000000 0.000000
vn -0.000780 -1.000000 -0.000325
vn -0.000845 -1.000000 0.000000
vn -0.000780 -1.000000 -0.000325
vn 0.000000 -1.000000 0.000000
vn -0.000845 -1.000000 0.000000
vn -0.000780 -1.000000 0.000325
vn -0.000845 -1.000000 0.000000
vn 0.000000 -1.000000 0.000000
vn -0.000780 -1.000000 0.000325
vn -0.000597 -1.000000 0.000600
vn -0.000780 -1.000000 0.000325
vn 0.000000 -1.000000 0.000000
vn -0.000597 -1.000000 0.000600
vn -0.000323 -1.000000 0.000784
vn -0.000597 -1.000000 0.000600
vn 0.000000 -1.000000 0.000000
vn -0.000323 -1.000000 0.000784
vn 0.000000 -1.000000 0.000849
vn -0.000323 -1.000000 0.000784
vn 0.000000 -1.000000 0.000000
vn 0.000000 -1.000000 0.000849
vn 0.000323 -1.000000 0.000784
vn 0.000000 -1.000000 0.000849
vn 0.000000 -1.000000 0.000000
vn 0.000323 -1.000000 0.000784
vn 0.000597 -1.000000 0.000600
vn 0.000323 -1.000000 0.000784
vn 0.000000 -1.000000 0.000000
vn 0.000597 -1.000000 0.000600
vn 0.000780 -1.000000 0.000325
vn 0.000597 -1.000000 0.000600
vn 0.000000 -1.000000 0.000000
vn 0.000780 -1.000000 0.000325
vn 0.000845 -1.000000 0.000000
vn 0.000780 -1.000000 0.000325
vn 0.000000 -1.000000 0.000000
vn 0.000845 -1.000000 0.000000
vn 0.000780 -1.000000 -0.000325
vn 0.000845 -1.000000 0.000000
vn 0.000000 -1.000000 0.000000
vn 0.000780 -1.000000 -0.000325
vn 0.000597 -1.000000 -0.000600
vn 0.000780 -1.000000 -0.000325
vn 0.000000 -1.000000 0.000000
vn 0.000597 -1.000000 -0.000600
vn 0.000323 -1.000000 -0.000784
vn 0.000597 -1.000000 -0.000600
vn 0.000000 -1.000000 0.000000
vn 0.000323 -1.000000 -0.000784
vn 0.000000 -1.000000 -0.000849
vn 0.000323 -1.000000 -0.000784
vn 0.000000 -1.000000 0.000000
vn 0.000000 -1.000000 -0.000849
vn -0.000000 0.000000 -1.000000
vn 0.705861 0.000000 -0.708351
vn 0.705861 0.000000 -0.708351
vn -0.000000 0.000000 -1.000000
# 332 vertex normals

g mizu
f 37/125/125 38/126/126 39/127/127 40/128/128
f 40/129/129 33/130/130 36/131/131 37/132/132
f 33/133/133 34/134/134 35/135/135 36/136/136
# 3 elements

g hunnsui
f 9/1/1 10/2/2 2/3/3 1/4/4
f 26/5/5 25/6/6 17/7/7 18/8/8
f 10/9/9 11/10/10 3/11/11 2/12/12
f 27/13/13 26/14/14 18/15/15 19/16/16
f 11/17/17 12/18/18 4/19/19 3/20/20
f 28/21/21 27/22/22 19/23/23 20/24/24
f 29/25/25 28/26/26 20/27/27 21/28/28
f 13/29/29 14/30/30 6/31/31 5/32/32
f 30/33/33 29/34/34 21/35/35 22/36/36
f 14/37/37 15/38/38 7/39/39 6/40/40
f 31/41/41 30/42/42 22/43/43 23/44/44
f 15/45/45 16/46/46 8/47/47 7/48/48
f 32/49/49 31/50/50 23/51/51 24/52/52
f 16/53/53 9/54/54 1/55/55 8/56/56
f 25/57/57 32/58/58 24/59/59 17/60/60
f 2/61/61 18/62/62 17/63/63 1/64/64
f 25/65/65 26/66/66 10/67/67 9/68/68
f 3/69/69 19/70/70 18/71/71 2/72/72
f 26/73/73 27/74/74 11/75/75 10/76/76
f 4/77/77 20/78/78 19/79/79 3/80/80
f 27/81/81 28/82/82 12/83/83 11/84/84
f 5/85/85 21/86/86 20/87/87 4/88/88
f 28/89/89 29/90/90 13/91/91 12/92/92
f 6/93/93 22/94/94 21/95/95 5/96/96
f 29/97/97 30/98/98 14/99/99 13/100/100
f 7/101/101 23/102/102 22/103/103 6/104/104
f 30/105/105 31/106/106 15/107/107 14/108/108
f 8/109/109 24/110/110 23/111/111 7/112/112
f 31/113/113 32/114/114 16/115/115 15/116/116
f 1/117/117 17/118/118 24/119/119 8/120/120
f 32/121/121 25/122/122 9/123/123 16/124/124
f 58/137/137 59/138/138 43/139/139 42/140/140
f 59/141/141 60/142/142 44/143/143 43/144/144
f 60/145/145 61/146/146 45/147/147 44/148/148
f 61/149/149 62/150/150 46/151/151 45/152/152
f 62/153/153 63/154/154 47/155/155 46/156/156
f 63/157/157 64/158/158 48/159/159 47/160/160
f 64/161/161 65/162/162 49/163/163 48/164/164
f 65/165/165 66/166/166 50/167/167 49/168/168
f 66/169/169 67/170/170 51/171/171 50/172/172
f 67/173/173 68/174/174 52/175/175 51/176/176
f 68/177/177 69/178/178 53/179/179 52/180/180
f 69/181/181 70/182/182 54/183/183 53/184/184
f 70/185/185 71/186/186 55/187/187 54/188/188
f 71/189/189 72/190/190 56/191/191 55/192/192
f 72/193/193 73/194/194 57/195/195 56/196/196
f 73/197/197 58/198/198 42/199/199 57/200/200
f 42/201/201 43/202/202 41/203/203
f 43/205/205 44/206/206 41/207/207
f 44/209/209 45/210/210 41/211/211
f 45/213/213 46/214/214 41/215/215
f 46/217/217 47/218/218 41/219/219
f 47/221/221 48/222/222 41/223/223
f 48/225/225 49/226/226 41/227/227
f 49/229/229 50/230/230 41/231/231
f 50/233/233 51/234/234 41/235/235
f 51/237/237 52/238/238 41/239/239
f 52/241/241 53/242/242 41/243/243
f 53/245/245 54/246/246 41/247/247
f 54/249/249 55/250/250 41/251/251
f 55/253/253 56/254/254 41/255/255
f 56/257/257 57/258/258 41/259/259
f 57/261/261 42/262/262 41/263/263
f 59/265/265 58/266/266 74/267/267
f 60/269/269 59/270/270 74/271/271
f 61/273/273 60/274/274 74/275/275
f 62/277/277 61/278/278 74/279/279
f 63/281/281 62/282/282 74/283/283
f 64/285/285 63/286/286 74/287/287
f 65/289/289 64/290/290 74/291/291
f 66/293/293 65/294/294 74/295/295
f 67/297/297 66/298/298 74/299/299
f 68/301/301 67/302/302 74/303/303
f 69/305/305 68/306/306 74/307/307
f 70/309/309 69/310/310 74/311/311
f 71/313/313 70/314/314 74/315/315
f 72/317/317 71/318/318 74/319/319
f 73/321/321 72/322/322 74/323/323
f 58/325/325 73/326/326 74/327/327
f 5/329/329 4/330/330 12/331/331 13/332/332
# 80 elements

