# Created by 3DAce v2.72


g
v 0.000000 16.407669 0.000000
v 0.000000 15.158713 6.278944
v 4.439885 15.158713 4.439885
v 6.278944 15.158713 -0.000000
v 4.439885 15.158713 -4.439885
v -0.000001 15.158713 -6.278944
v -4.439886 15.158713 -4.439884
v -6.278944 15.158713 0.000000
v -4.439886 15.158713 4.439884
v 0.000000 11.601978 11.601978
v 8.203835 11.601978 8.203835
v 11.601978 11.601978 -0.000001
v 8.203835 11.601978 -8.203835
v -0.000001 11.601978 -11.601978
v -8.203835 11.601978 -8.203834
v -11.601978 11.601978 0.000000
v -8.203835 11.601978 8.203834
v 0.000000 6.278943 15.158713
v 10.718830 6.278943 10.718830
v 15.158713 6.278943 -0.000001
v 10.718830 6.278943 -10.718830
v -0.000001 6.278943 -15.158713
v -10.718833 6.278943 -10.718828
v -15.158713 6.278943 0.000000
v -10.718833 6.278943 10.718829
v 0.000000 -0.000001 16.407669
v 11.601978 -0.000001 11.601978
v 16.407669 -0.000001 -0.000001
v 11.601978 -0.000001 -11.601978
v -0.000001 -0.000001 -16.407669
v -11.601982 -0.000001 -11.601977
v -16.407669 -0.000001 0.000000
v -11.601982 -0.000001 11.601977
v 0.000000 -6.278946 15.158713
v 10.718830 -6.278946 10.718830
v 15.158713 -6.278946 -0.000001
v 10.718830 -6.278946 -10.718830
v -0.000001 -6.278946 -15.158713
v -10.718833 -6.278946 -10.718828
v -15.158713 -6.278946 0.000000
v -10.718833 -6.278946 10.718829
v 0.000000 -11.601978 11.601978
v 8.203835 -11.601978 8.203835
v 11.601978 -11.601978 -0.000001
v 8.203835 -11.601978 -8.203835
v -0.000001 -11.601978 -11.601978
v -8.203835 -11.601978 -8.203834
v -11.601978 -11.601978 0.000000
v -8.203835 -11.601978 8.203834
v 0.000000 -15.158713 6.278944
v 4.439885 -15.158713 4.439885
v 6.278944 -15.158713 -0.000000
v 4.439885 -15.158713 -4.439885
v -0.000001 -15.158713 -6.278944
v -4.439886 -15.158713 -4.439885
v -6.278944 -15.158713 0.000000
v -4.439886 -15.158713 4.439885
v 0.000000 -16.407669 0.000000
# 58 vertices

vt 0.613630 0.703270
vt 0.500000 0.703270
vt 0.500000 0.744700
vt 0.613630 0.703270
vt 0.660690 0.703270
vt 0.613630 0.703270
vt 0.500000 0.744700
vt 0.660690 0.703270
vt 0.613630 0.703270
vt 0.660690 0.703270
vt 0.500000 0.744700
vt 0.613630 0.703270
vt 0.500000 0.703270
vt 0.613630 0.703270
vt 0.500000 0.744700
vt 0.500000 0.703270
vt 0.386370 0.703270
vt 0.500000 0.703270
vt 0.500000 0.744700
vt 0.386370 0.703270
vt 0.339310 0.703270
vt 0.386370 0.703270
vt 0.500000 0.744700
vt 0.339310 0.703270
vt 0.386370 0.703270
vt 0.339310 0.703270
vt 0.500000 0.744700
vt 0.386370 0.703270
vt 0.500000 0.703270
vt 0.386370 0.703270
vt 0.500000 0.744700
vt 0.500000 0.703270
vt 0.613630 0.703270
vt 0.709960 0.585290
vt 0.500000 0.585290
vt 0.500000 0.703270
vt 0.660690 0.703270
vt 0.796920 0.585290
vt 0.709960 0.585290
vt 0.613630 0.703270
vt 0.613630 0.703270
vt 0.709960 0.585290
vt 0.796920 0.585290
vt 0.660690 0.703270
vt 0.500000 0.703270
vt 0.500000 0.585290
vt 0.709960 0.585290
vt 0.613630 0.703270
vt 0.386370 0.703270
vt 0.290040 0.585290
vt 0.500000 0.585290
vt 0.500000 0.703270
vt 0.339310 0.703270
vt 0.203080 0.585290
vt 0.290040 0.585290
vt 0.386370 0.703270
vt 0.386370 0.703270
vt 0.290040 0.585290
vt 0.203080 0.585290
vt 0.339310 0.703270
vt 0.500000 0.703270
vt 0.500000 0.585290
vt 0.290040 0.585290
vt 0.386370 0.703270
vt 0.709960 0.585290
vt 0.774320 0.408730
vt 0.500000 0.408730
vt 0.500000 0.585290
vt 0.796920 0.585290
vt 0.887950 0.408730
vt 0.774320 0.408730
vt 0.709960 0.585290
vt 0.709960 0.585290
vt 0.774320 0.408730
vt 0.887950 0.408730
vt 0.796920 0.585290
vt 0.500000 0.585290
vt 0.500000 0.408730
vt 0.774320 0.408730
vt 0.709960 0.585290
vt 0.290040 0.585290
vt 0.225680 0.408730
vt 0.500000 0.408730
vt 0.500000 0.585290
vt 0.203080 0.585290
vt 0.112050 0.408730
vt 0.225680 0.408730
vt 0.290040 0.585290
vt 0.290040 0.585290
vt 0.225680 0.408730
vt 0.112050 0.408730
vt 0.203080 0.585290
vt 0.500000 0.585290
vt 0.500000 0.408730
vt 0.225680 0.408730
vt 0.290040 0.585290
vt 0.774320 0.408730
vt 0.796920 0.200460
vt 0.500000 0.200460
vt 0.500000 0.408730
vt 0.887950 0.408730
vt 0.919910 0.200460
vt 0.796920 0.200460
vt 0.774320 0.408730
vt 0.774320 0.408730
vt 0.796920 0.200460
vt 0.919910 0.200460
vt 0.887950 0.408730
vt 0.500000 0.408730
vt 0.500000 0.200460
vt 0.796920 0.200460
vt 0.774320 0.408730
vt 0.225680 0.408730
vt 0.203080 0.200460
vt 0.500000 0.200460
vt 0.500000 0.408730
vt 0.112050 0.408730
vt 0.080090 0.200460
vt 0.203080 0.200460
vt 0.225680 0.408730
vt 0.225680 0.408730
vt 0.203080 0.200460
vt 0.080090 0.200460
vt 0.112050 0.408730
vt 0.500000 0.408730
vt 0.500000 0.200460
vt 0.203080 0.200460
vt 0.225680 0.408730
vt 0.796920 0.200460
vt 0.774320 -0.007820
vt 0.500000 -0.007820
vt 0.500000 0.200460
vt 0.919910 0.200460
vt 0.887950 -0.007820
vt 0.774320 -0.007820
vt 0.796920 0.200460
vt 0.796920 0.200460
vt 0.774320 -0.007820
vt 0.887950 -0.007820
vt 0.919910 0.200460
vt 0.500000 0.200460
vt 0.500000 -0.007820
vt 0.774320 -0.007820
vt 0.796920 0.200460
vt 0.203080 0.200460
vt 0.225680 -0.007820
vt 0.500000 -0.007820
vt 0.500000 0.200460
vt 0.080090 0.200460
vt 0.112050 -0.007820
vt 0.225680 -0.007820
vt 0.203080 0.200460
vt 0.203080 0.200460
vt 0.225680 -0.007820
vt 0.112050 -0.007820
vt 0.080090 0.200460
vt 0.500000 0.200460
vt 0.500000 -0.007820
vt 0.225680 -0.007820
vt 0.203080 0.200460
vt 0.774320 -0.007820
vt 0.709960 -0.184380
vt 0.500000 -0.184380
vt 0.500000 -0.007820
vt 0.887950 -0.007820
vt 0.796920 -0.184380
vt 0.709960 -0.184380
vt 0.774320 -0.007820
vt 0.774320 -0.007820
vt 0.709960 -0.184380
vt 0.796920 -0.184380
vt 0.887950 -0.007820
vt 0.500000 -0.007820
vt 0.500000 -0.184380
vt 0.709960 -0.184380
vt 0.774320 -0.007820
vt 0.225680 -0.007820
vt 0.290040 -0.184380
vt 0.500000 -0.184380
vt 0.500000 -0.007820
vt 0.112050 -0.007820
vt 0.203080 -0.184380
vt 0.290040 -0.184380
vt 0.225680 -0.007820
vt 0.225680 -0.007820
vt 0.290040 -0.184380
vt 0.203080 -0.184380
vt 0.112050 -0.007820
vt 0.500000 -0.007820
vt 0.500000 -0.184380
vt 0.290040 -0.184380
vt 0.225680 -0.007820
vt 0.709960 -0.184380
vt 0.613630 -0.302360
vt 0.500000 -0.302360
vt 0.500000 -0.184380
vt 0.796920 -0.184380
vt 0.660690 -0.302360
vt 0.613630 -0.302360
vt 0.709960 -0.184380
vt 0.709960 -0.184380
vt 0.613630 -0.302360
vt 0.660690 -0.302360
vt 0.796920 -0.184380
vt 0.500000 -0.184380
vt 0.500000 -0.302360
vt 0.613630 -0.302360
vt 0.709960 -0.184380
vt 0.290040 -0.184380
vt 0.386370 -0.302360
vt 0.500000 -0.302360
vt 0.500000 -0.184380
vt 0.203080 -0.184380
vt 0.339310 -0.302360
vt 0.386370 -0.302360
vt 0.290040 -0.184380
vt 0.290040 -0.184380
vt 0.386370 -0.302360
vt 0.339310 -0.302360
vt 0.203080 -0.184380
vt 0.500000 -0.184380
vt 0.500000 -0.302360
vt 0.386370 -0.302360
vt 0.290040 -0.184380
vt 0.613630 -0.302360
vt 0.500000 -0.343790
vt 0.500000 -0.302360
vt 0.613630 -0.302360
vt 0.660690 -0.302360
vt 0.500000 -0.343790
vt 0.613630 -0.302360
vt 0.660690 -0.302360
vt 0.613630 -0.302360
vt 0.500000 -0.343790
vt 0.660690 -0.302360
vt 0.613630 -0.302360
vt 0.500000 -0.302360
vt 0.500000 -0.343790
vt 0.613630 -0.302360
vt 0.500000 -0.302360
vt 0.386370 -0.302360
vt 0.500000 -0.343790
vt 0.500000 -0.302360
vt 0.386370 -0.302360
vt 0.339310 -0.302360
vt 0.500000 -0.343790
vt 0.386370 -0.302360
vt 0.339310 -0.302360
vt 0.386370 -0.302360
vt 0.500000 -0.343790
vt 0.339310 -0.302360
vt 0.386370 -0.302360
vt 0.500000 -0.302360
vt 0.500000 -0.343790
vt 0.386370 -0.302360
vt 0.500000 -0.302360
# 256 texture vertices

vn -0.269132 -0.924735 -0.269132
vn 0.000000 -0.924735 -0.380610
vn 0.000000 -1.000000 0.000000
vn -0.269132 -0.924735 -0.269132
vn -0.380610 -0.924735 0.000000
vn -0.269132 -0.924735 -0.269132
vn 0.000000 -1.000000 0.000000
vn -0.380610 -0.924735 0.000000
vn -0.269132 -0.924735 0.269132
vn -0.380610 -0.924735 0.000000
vn 0.000000 -1.000000 0.000000
vn -0.269132 -0.924735 0.269132
vn 0.000000 -0.924735 0.380610
vn -0.269132 -0.924735 0.269132
vn 0.000000 -1.000000 0.000000
vn 0.000000 -0.924735 0.380610
vn 0.269132 -0.924735 0.269132
vn 0.000000 -0.924735 0.380610
vn 0.000000 -1.000000 0.000000
vn 0.269132 -0.924735 0.269132
vn 0.380610 -0.924735 -0.000000
vn 0.269132 -0.924735 0.269132
vn 0.000000 -1.000000 0.000000
vn 0.380610 -0.924735 -0.000000
vn 0.269132 -0.924735 -0.269132
vn 0.380610 -0.924735 -0.000000
vn 0.000000 -1.000000 0.000000
vn 0.269132 -0.924735 -0.269132
vn 0.000000 -0.924735 -0.380610
vn 0.269132 -0.924735 -0.269132
vn 0.000000 -1.000000 0.000000
vn 0.000000 -0.924735 -0.380610
vn -0.269132 -0.924735 -0.269132
vn -0.498494 -0.709230 -0.498494
vn 0.000000 -0.709230 -0.704977
vn 0.000000 -0.924735 -0.380610
vn -0.380610 -0.924735 0.000000
vn -0.704977 -0.709230 0.000000
vn -0.498494 -0.709230 -0.498494
vn -0.269132 -0.924735 -0.269132
vn -0.269132 -0.924735 0.269132
vn -0.498494 -0.709230 0.498494
vn -0.704977 -0.709230 0.000000
vn -0.380610 -0.924735 0.000000
vn 0.000000 -0.924735 0.380610
vn 0.000000 -0.709230 0.704977
vn -0.498494 -0.709230 0.498494
vn -0.269132 -0.924735 0.269132
vn 0.269132 -0.924735 0.269132
vn 0.498494 -0.709230 0.498494
vn 0.000000 -0.709230 0.704977
vn 0.000000 -0.924735 0.380610
vn 0.380610 -0.924735 -0.000000
vn 0.704977 -0.709230 0.000000
vn 0.498494 -0.709230 0.498494
vn 0.269132 -0.924735 0.269132
vn 0.269132 -0.924735 -0.269132
vn 0.498494 -0.709230 -0.498494
vn 0.704977 -0.709230 0.000000
vn 0.380610 -0.924735 -0.000000
vn 0.000000 -0.924735 -0.380610
vn 0.000000 -0.709230 -0.704977
vn 0.498494 -0.709230 -0.498494
vn 0.269132 -0.924735 -0.269132
vn -0.498494 -0.709230 -0.498494
vn -0.652733 -0.384551 -0.652733
vn 0.000000 -0.384551 -0.923104
vn 0.000000 -0.709230 -0.704977
vn -0.704977 -0.709230 0.000000
vn -0.923104 -0.384551 0.000000
vn -0.652733 -0.384551 -0.652733
vn -0.498494 -0.709230 -0.498494
vn -0.498494 -0.709230 0.498494
vn -0.652733 -0.384551 0.652733
vn -0.923104 -0.384551 0.000000
vn -0.704977 -0.709230 0.000000
vn 0.000000 -0.709230 0.704977
vn 0.000000 -0.384551 0.923104
vn -0.652733 -0.384551 0.652733
vn -0.498494 -0.709230 0.498494
vn 0.498494 -0.709230 0.498494
vn 0.652733 -0.384551 0.652733
vn 0.000000 -0.384551 0.923104
vn 0.000000 -0.709230 0.704977
vn 0.704977 -0.709230 0.000000
vn 0.923104 -0.384551 0.000000
vn 0.652733 -0.384551 0.652733
vn 0.498494 -0.709230 0.498494
vn 0.498494 -0.709230 -0.498494
vn 0.652733 -0.384551 -0.652733
vn 0.923104 -0.384551 0.000000
vn 0.704977 -0.709230 0.000000
vn 0.000000 -0.709230 -0.704977
vn 0.000000 -0.384551 -0.923104
vn 0.652733 -0.384551 -0.652733
vn 0.498494 -0.709230 -0.498494
vn -0.652733 -0.384551 -0.652733
vn -0.707107 -0.000000 -0.707107
vn -0.000000 -0.000000 -1.000000
vn 0.000000 -0.384551 -0.923104
vn -0.923104 -0.384551 0.000000
vn -1.000000 -0.000000 0.000000
vn -0.707107 -0.000000 -0.707107
vn -0.652733 -0.384551 -0.652733
vn -0.652733 -0.384551 0.652733
vn -0.707107 -0.000000 0.707107
vn -1.000000 -0.000000 0.000000
vn -0.923104 -0.384551 0.000000
vn 0.000000 -0.384551 0.923104
vn 0.000000 -0.000000 1.000000
vn -0.707107 -0.000000 0.707107
vn -0.652733 -0.384551 0.652733
vn 0.652733 -0.384551 0.652733
vn 0.707107 -0.000000 0.707107
vn 0.000000 -0.000000 1.000000
vn 0.000000 -0.384551 0.923104
vn 0.923104 -0.384551 0.000000
vn 1.000000 -0.000000 0.000000
vn 0.707107 -0.000000 0.707107
vn 0.652733 -0.384551 0.652733
vn 0.652733 -0.384551 -0.652733
vn 0.707107 -0.000000 -0.707107
vn 1.000000 -0.000000 0.000000
vn 0.923104 -0.384551 0.000000
vn 0.000000 -0.384551 -0.923104
vn -0.000000 -0.000000 -1.000000
vn 0.707107 -0.000000 -0.707107
vn 0.652733 -0.384551 -0.652733
vn -0.707107 -0.000000 -0.707107
vn -0.652733 0.384551 -0.652733
vn 0.000000 0.384551 -0.923104
vn -0.000000 -0.000000 -1.000000
vn -1.000000 -0.000000 0.000000
vn -0.923104 0.384551 0.000000
vn -0.652733 0.384551 -0.652733
vn -0.707107 -0.000000 -0.707107
vn -0.707107 -0.000000 0.707107
vn -0.652733 0.384551 0.652733
vn -0.923104 0.384551 0.000000
vn -1.000000 -0.000000 0.000000
vn 0.000000 -0.000000 1.000000
vn 0.000000 0.384551 0.923104
vn -0.652733 0.384551 0.652733
vn -0.707107 -0.000000 0.707107
vn 0.707107 -0.000000 0.707107
vn 0.652733 0.384551 0.652733
vn 0.000000 0.384551 0.923104
vn 0.000000 -0.000000 1.000000
vn 1.000000 -0.000000 0.000000
vn 0.923104 0.384551 -0.000000
vn 0.652733 0.384551 0.652733
vn 0.707107 -0.000000 0.707107
vn 0.707107 -0.000000 -0.707107
vn 0.652733 0.384551 -0.652733
vn 0.923104 0.384551 -0.000000
vn 1.000000 -0.000000 0.000000
vn -0.000000 -0.000000 -1.000000
vn 0.000000 0.384551 -0.923104
vn 0.652733 0.384551 -0.652733
vn 0.707107 -0.000000 -0.707107
vn -0.652733 0.384551 -0.652733
vn -0.498494 0.709230 -0.498494
vn 0.000000 0.709230 -0.704977
vn 0.000000 0.384551 -0.923104
vn -0.923104 0.384551 0.000000
vn -0.704977 0.709230 0.000000
vn -0.498494 0.709230 -0.498494
vn -0.652733 0.384551 -0.652733
vn -0.652733 0.384551 0.652733
vn -0.498494 0.709230 0.498494
vn -0.704977 0.709230 0.000000
vn -0.923104 0.384551 0.000000
vn 0.000000 0.384551 0.923104
vn 0.000000 0.709230 0.704977
vn -0.498494 0.709230 0.498494
vn -0.652733 0.384551 0.652733
vn 0.652733 0.384551 0.652733
vn 0.498494 0.709230 0.498494
vn 0.000000 0.709230 0.704977
vn 0.000000 0.384551 0.923104
vn 0.923104 0.384551 -0.000000
vn 0.704977 0.709231 0.000000
vn 0.498494 0.709230 0.498494
vn 0.652733 0.384551 0.652733
vn 0.652733 0.384551 -0.652733
vn 0.498494 0.709230 -0.498494
vn 0.704977 0.709231 0.000000
vn 0.923104 0.384551 -0.000000
vn 0.000000 0.384551 -0.923104
vn 0.000000 0.709230 -0.704977
vn 0.498494 0.709230 -0.498494
vn 0.652733 0.384551 -0.652733
vn -0.498494 0.709230 -0.498494
vn -0.269132 0.924735 -0.269132
vn 0.000000 0.924735 -0.380610
vn 0.000000 0.709231 -0.704977
vn -0.704977 0.709230 0.000000
vn -0.380610 0.924735 -0.000000
vn -0.269132 0.924735 -0.269132
vn -0.498494 0.709230 -0.498494
vn -0.498494 0.709230 0.498494
vn -0.269132 0.924735 0.269132
vn -0.380610 0.924735 -0.000000
vn -0.704977 0.709231 0.000000
vn 0.000000 0.709230 0.704977
vn 0.000000 0.924735 0.380610
vn -0.269132 0.924735 0.269132
vn -0.498494 0.709230 0.498494
vn 0.498494 0.709230 0.498494
vn 0.269132 0.924735 0.269132
vn 0.000000 0.924735 0.380610
vn 0.000000 0.709230 0.704977
vn 0.704977 0.709231 0.000000
vn 0.380610 0.924735 0.000000
vn 0.269132 0.924735 0.269132
vn 0.498494 0.709230 0.498494
vn 0.498494 0.709230 -0.498494
vn 0.269132 0.924735 -0.269132
vn 0.380610 0.924735 0.000000
vn 0.704977 0.709231 0.000000
vn 0.000000 0.709230 -0.704977
vn 0.000000 0.924735 -0.380610
vn 0.269132 0.924735 -0.269132
vn 0.498494 0.709230 -0.498494
vn -0.269132 0.924735 -0.269132
vn -0.000000 1.000000 0.000000
vn 0.000000 0.924735 -0.380610
vn -0.269132 0.924735 -0.269132
vn -0.380610 0.924735 -0.000000
vn -0.000000 1.000000 0.000000
vn -0.269132 0.924735 -0.269132
vn -0.380610 0.924735 -0.000000
vn -0.269132 0.924735 0.269132
vn -0.000000 1.000000 0.000000
vn -0.380610 0.924735 -0.000000
vn -0.269132 0.924735 0.269132
vn 0.000000 0.924735 0.380610
vn -0.000000 1.000000 0.000000
vn -0.269132 0.924735 0.269132
vn 0.000000 0.924735 0.380610
vn 0.269132 0.924735 0.269132
vn -0.000000 1.000000 0.000000
vn 0.000000 0.924735 0.380610
vn 0.269132 0.924735 0.269132
vn 0.380610 0.924735 0.000000
vn -0.000000 1.000000 0.000000
vn 0.269132 0.924735 0.269132
vn 0.380610 0.924735 0.000000
vn 0.269132 0.924735 -0.269132
vn -0.000000 1.000000 0.000000
vn 0.380610 0.924735 0.000000
vn 0.269132 0.924735 -0.269132
vn 0.000000 0.924735 -0.380610
vn 0.000000 1.000000 0.000000
vn 0.269132 0.924735 -0.269132
vn 0.000000 0.924735 -0.380610
# 256 vertex normals

g sky
f 3/1/1 2/2/2 1/3/3
f 4/5/5 3/6/6 1/7/7
f 5/9/9 4/10/10 1/11/11
f 6/13/13 5/14/14 1/15/15
f 7/17/17 6/18/18 1/19/19
f 8/21/21 7/22/22 1/23/23
f 9/25/25 8/26/26 1/27/27
f 2/29/29 9/30/30 1/31/31
f 3/33/33 11/34/34 10/35/35 2/36/36
f 4/37/37 12/38/38 11/39/39 3/40/40
f 5/41/41 13/42/42 12/43/43 4/44/44
f 6/45/45 14/46/46 13/47/47 5/48/48
f 7/49/49 15/50/50 14/51/51 6/52/52
f 8/53/53 16/54/54 15/55/55 7/56/56
f 9/57/57 17/58/58 16/59/59 8/60/60
f 2/61/61 10/62/62 17/63/63 9/64/64
f 11/65/65 19/66/66 18/67/67 10/68/68
f 12/69/69 20/70/70 19/71/71 11/72/72
f 13/73/73 21/74/74 20/75/75 12/76/76
f 14/77/77 22/78/78 21/79/79 13/80/80
f 15/81/81 23/82/82 22/83/83 14/84/84
f 16/85/85 24/86/86 23/87/87 15/88/88
f 17/89/89 25/90/90 24/91/91 16/92/92
f 10/93/93 18/94/94 25/95/95 17/96/96
f 19/97/97 27/98/98 26/99/99 18/100/100
f 20/101/101 28/102/102 27/103/103 19/104/104
f 21/105/105 29/106/106 28/107/107 20/108/108
f 22/109/109 30/110/110 29/111/111 21/112/112
f 23/113/113 31/114/114 30/115/115 22/116/116
f 24/117/117 32/118/118 31/119/119 23/120/120
f 25/121/121 33/122/122 32/123/123 24/124/124
f 18/125/125 26/126/126 33/127/127 25/128/128
f 27/129/129 35/130/130 34/131/131 26/132/132
f 28/133/133 36/134/134 35/135/135 27/136/136
f 29/137/137 37/138/138 36/139/139 28/140/140
f 30/141/141 38/142/142 37/143/143 29/144/144
f 31/145/145 39/146/146 38/147/147 30/148/148
f 32/149/149 40/150/150 39/151/151 31/152/152
f 33/153/153 41/154/154 40/155/155 32/156/156
f 26/157/157 34/158/158 41/159/159 33/160/160
f 35/161/161 43/162/162 42/163/163 34/164/164
f 36/165/165 44/166/166 43/167/167 35/168/168
f 37/169/169 45/170/170 44/171/171 36/172/172
f 38/173/173 46/174/174 45/175/175 37/176/176
f 39/177/177 47/178/178 46/179/179 38/180/180
f 40/181/181 48/182/182 47/183/183 39/184/184
f 41/185/185 49/186/186 48/187/187 40/188/188
f 34/189/189 42/190/190 49/191/191 41/192/192
f 43/193/193 51/194/194 50/195/195 42/196/196
f 44/197/197 52/198/198 51/199/199 43/200/200
f 45/201/201 53/202/202 52/203/203 44/204/204
f 46/205/205 54/206/206 53/207/207 45/208/208
f 47/209/209 55/210/210 54/211/211 46/212/212
f 48/213/213 56/214/214 55/215/215 47/216/216
f 49/217/217 57/218/218 56/219/219 48/220/220
f 42/221/221 50/222/222 57/223/223 49/224/224
f 51/225/225 58/226/226 50/227/227
f 52/229/229 58/230/230 51/231/231
f 53/233/233 58/234/234 52/235/235
f 54/237/237 58/238/238 53/239/239
f 55/241/241 58/242/242 54/243/243
f 56/245/245 58/246/246 55/247/247
f 57/249/249 58/250/250 56/251/251
f 50/253/253 58/254/254 57/255/255
# 64 elements

