# Created by 3DAce v2.72


g
v -22.667143 1.088188 -29.599281
v 31.983578 1.088188 -29.599281
v 31.984676 1.088231 -16.170544
v -22.667143 1.088210 -22.615759
v 31.984135 1.088210 -22.584219
v -13.838146 1.088210 -22.615759
v -13.838070 1.088231 -16.170544
v -13.838224 1.088188 -29.599281
v -13.726201 1.781547 -22.615686
v -20.994900 1.770000 -22.620239
# 10 vertices

vt -32.135422 17.950741
vt 75.931999 17.950741
vt 75.930717 2.824870
vt -32.135601 2.750480
vt -32.135780 -13.719310
vt -52.957722 -13.719310
vt -52.957722 2.750480
vt -32.135601 2.750480
vt 75.930717 2.824870
vt 75.929413 -13.719310
vt -32.135780 -13.719310
vt -32.135601 2.750480
vt -31.871590 2.750660
vt -32.135601 2.750480
vt -52.957722 2.750480
vt -49.013939 2.739920
# 16 texture vertices

vn 0.000000 1.000000 -0.000003
vn 0.000000 1.000000 -0.000003
vn 0.000000 1.000000 -0.000003
vn 0.000000 1.000000 -0.000003
vn 0.000000 1.000000 -0.000003
vn 0.000000 1.000000 -0.000003
vn 0.000000 1.000000 -0.000003
vn 0.000000 1.000000 -0.000003
vn 0.000000 1.000000 -0.000003
vn 0.000000 1.000000 -0.000003
vn 0.000000 1.000000 -0.000003
vn 0.000000 1.000000 -0.000003
vn 0.000313 -0.003284 -0.999995
vn 0.000313 -0.003284 -0.999995
vn 0.000313 -0.003284 -0.999995
vn 0.000313 -0.003284 -0.999995
# 16 vertex normals

g mat11
f 7/1/1 3/2/2 5/3/3 6/4/4
f 8/5/5 1/6/6 4/7/7 6/8/8
f 5/9/9 2/10/10 8/11/11 6/12/12
f 9/13/13 6/14/14 4/15/15 10/16/16
# 4 elements

